# xmcd
#
# Track frame offsets:
#	150
#	12845
#	27967
#	45419
#	62172
#	75887
#	96467
#	114861
#	134752
#	149433
#	164993
#	183225
#	200846
#	217642
#	219164
#
# Disc length: 2954
#
# Revision: 1
# Processed by: cddbd v1.5.1PL0 Copyright (c) Steve Scherf et al.
# Submitted via: VisiTrax 2.9.5.180 - For more info visit www.synapsa.com
# Normalized: r0:DSETVAR1
#
DISCID=d10b880f
DTITLE=Various Artist - CDX 233 February 2000
DYEAR=2000
DGENRE=
TTITLE0=Sawyer Brown - 800 pound Jesus
TTITLE1=Eric Heatherly - Flowers on the wall
TTITLE2=Coley McCabe/Andy Griggs - Grow young with you
TTITLE3=Redmon and Vale - In the name of love
TTITLE4=Joe Diffie - It's always sometrhin'
TTITLE5=Alan Jackson - The blues man
TTITLE6=Clay Davidson - Unconditional
TTITLE7=Ricky Skaggs and Kentucky Thunder - Walls of time
TTITLE8=Jack Ingram - Work this out
TTITLE9=Chad Brock - Yes!
TTITLE10=Keith Urban - Your everything
TTITLE11=Keith Bryant - Is there a honky tonk here
TTITLE12=B B Watson - The memory is the last thing to go
TTITLE13=Redmon and Vale - PSA
TTITLE14=Redmon and Vale - PSA
EXTD=
EXTT0=
EXTT1=
EXTT2=
EXTT3=
EXTT4=
EXTT5=
EXTT6=
EXTT7=
EXTT8=
EXTT9=
EXTT10=
EXTT11=
EXTT12=
EXTT13=
EXTT14=
PLAYORDER=
